<svg width="13" height="20" viewBox="0 0 13 20" fill="none" xmlns="http://www.w3.org/2000/svg">
<path d="M4.72301 13.6555H7.67933V13.4247C7.69709 11.5426 8.30966 10.6815 9.75675 9.79368C11.3903 8.81712 12.4112 7.48544 12.4112 5.45241C12.4112 2.4517 10.0763 0.569602 6.68501 0.569602C3.57777 0.569602 1.05646 2.2919 0.967685 5.66548H4.1282C4.2081 3.99645 5.41548 3.19744 6.66726 3.19744C8.02557 3.19744 9.11754 4.10298 9.11754 5.4968C9.11754 6.7397 8.2919 7.59197 7.21769 8.26669C5.64631 9.24325 4.74077 10.2287 4.72301 13.4247V13.6555ZM6.27663 19.1953C7.32422 19.1953 8.22088 18.3253 8.22976 17.2422C8.22088 16.1768 7.32422 15.3068 6.27663 15.3068C5.19354 15.3068 4.31463 16.1768 4.32351 17.2422C4.31463 18.3253 5.19354 19.1953 6.27663 19.1953Z" fill="#40A05A"/>
</svg>
