<svg width="23" height="22" viewBox="0 0 23 22" fill="none" xmlns="http://www.w3.org/2000/svg">
<path d="M15.5274 10.0131C15.5258 10.0131 15.5243 10.0131 15.5227 10.0131H13.5966V7.92701C13.5992 7.50628 13.2856 7.16289 12.8961 7.16008C12.8945 7.16008 12.8929 7.16008 12.8914 7.16008H10.1087C9.71929 7.16008 9.40357 7.50117 9.40357 7.9219V10.0079H7.47745C7.08803 10.0051 6.77018 10.3439 6.76758 10.7646C6.76758 10.768 6.76758 10.7714 6.76758 10.7749V13.7761C6.76758 14.1969 7.08329 14.5379 7.47272 14.5379H9.40357V16.6189C9.40097 17.0396 9.71455 17.383 10.104 17.3858C10.1056 17.3858 10.1072 17.3858 10.1087 17.3858H12.8867C13.2761 17.3858 13.5918 17.0447 13.5918 16.624V14.5379H15.5227C15.9121 14.5408 16.2299 14.202 16.2325 13.7812C16.2325 13.7795 16.2325 13.7778 16.2325 13.7761V10.7749C16.2325 10.3542 15.9169 10.0131 15.5274 10.0131ZM15.286 13.5154H13.1233C12.862 13.5154 12.6501 13.7443 12.6501 14.0267V16.3632H10.3501V14.0267C10.3501 13.7443 10.1382 13.5154 9.87682 13.5154H7.71407V11.0356H9.87682C10.1382 11.0356 10.3501 10.8067 10.3501 10.5243V8.18265H12.6453V10.5192C12.6453 10.8016 12.8572 11.0305 13.1186 11.0305H15.286V13.5154Z" fill="white"/>
<path d="M19.7346 3.33564H15.835V1.53591C15.8595 0.714658 15.2632 0.0273608 14.503 0.000837847C14.4643 -0.00050428 14.4255 -0.000120873 14.3868 0.0020521H8.61317C7.8536 -0.0407042 7.20578 0.58984 7.16614 1.41039C7.16413 1.45219 7.16372 1.49405 7.16502 1.53591V3.32541H3.26543C1.76049 3.32541 0 4.25084 0 6.85329V17.9738C0 20.5762 1.76049 21.5017 3.26543 21.5017H19.7346C21.2395 21.5017 23 20.5762 23 17.9738V6.86352C23 4.26107 21.2442 3.33564 19.7346 3.33564ZM8.11152 1.53591C8.11152 1.38764 8.11152 0.988835 8.6179 0.988835H14.3868C14.8932 0.988835 14.8932 1.38253 14.8932 1.53591V3.32541H8.11152V1.53591ZM22.0535 17.9738C22.0535 20.2337 20.435 20.4791 19.7346 20.4791H3.26543C2.56975 20.4791 0.946502 20.2337 0.946502 17.9738V6.86352C0.946502 4.60363 2.56502 4.35821 3.26543 4.35821H19.7346C20.4302 4.35821 22.0535 4.60363 22.0535 6.86352V17.9738Z" fill="white"/>
</svg>
