<svg width="59" height="57" viewBox="0 0 59 57" fill="none" xmlns="http://www.w3.org/2000/svg">
<path d="M58.1357 11.5301H44.6821V8.8149C44.6821 8.3376 44.2953 7.95064 43.8179 7.95064H42.895V6.90107C42.895 3.53021 40.1526 0.787842 36.7817 0.787842H31.3828C30.9054 0.787842 30.5186 1.1748 30.5186 1.65211C30.5186 2.12941 30.9054 2.51637 31.3828 2.51637H36.7817C39.1994 2.51637 41.1664 4.48332 41.1664 6.90107V7.95064H39.311V6.90107C39.311 5.50627 38.1763 4.37166 36.7817 4.37166H22.2183C20.8236 4.37166 19.689 5.50638 19.689 6.90107V7.95064H17.8336V6.90107C17.8336 4.48332 19.8005 2.51637 22.2183 2.51637H27.6172C28.0946 2.51637 28.4814 2.12941 28.4814 1.65211C28.4814 1.1748 28.0946 0.787842 27.6172 0.787842H22.2183C18.8474 0.787842 16.1051 3.53021 16.1051 6.90107V7.95064H15.1821C14.7047 7.95064 14.3179 8.3376 14.3179 8.8149V11.5301H0.864265C0.386845 11.5301 0 11.917 0 12.3943V55.3479C0 55.8252 0.386845 56.2122 0.864265 56.2122H58.1357C58.6132 56.2122 59 55.8252 59 55.3479V12.3943C59 11.917 58.6132 11.5301 58.1357 11.5301ZM42.9536 11.5301H37.5231V9.67916H42.9536V11.5301ZM21.4174 6.90096C21.4174 6.45926 21.7766 6.10007 22.2182 6.10007H36.7817C37.2233 6.10007 37.5825 6.45938 37.5825 6.90096V7.95052H36.6588C36.1813 7.95052 35.7945 8.33748 35.7945 8.81479V11.53H23.2054V8.8149C23.2054 8.3376 22.8185 7.95064 22.3411 7.95064H21.4174V6.90096ZM16.0464 9.67916H21.4769V11.5301H16.0464V9.67916ZM1.72853 13.2586H57.2715V25.8479H1.72853V13.2586ZM44.6821 27.5765H48.3229V32.993H44.6821V27.5765ZM10.6771 27.5765H14.3179V32.993H10.6771V27.5765ZM57.2715 54.4837H1.72853V27.5765H3.57898V37.3566C3.57898 37.8339 3.96582 38.2209 4.44324 38.2209C4.92066 38.2209 5.30751 37.8339 5.30751 37.3566V27.5766H8.94871V33.8574C8.94871 34.3347 9.33556 34.7216 9.81297 34.7216H15.1822C15.6597 34.7216 16.0465 34.3347 16.0465 33.8574V27.5766H42.9537V33.8574C42.9537 34.3347 43.3406 34.7216 43.818 34.7216H49.1873C49.6647 34.7216 50.0515 34.3347 50.0515 33.8574V27.5766H53.6927V50.891H50.0515V44.5953C50.0515 44.118 49.6647 43.7311 49.1873 43.7311H43.818C43.3406 43.7311 42.9537 44.118 42.9537 44.5953V50.891H16.0464V44.5953C16.0464 44.118 15.6596 43.7311 15.1821 43.7311H9.81286C9.33544 43.7311 8.9486 44.118 8.9486 44.5953V50.891H5.30751V41.1236C5.30751 40.6463 4.92066 40.2594 4.44324 40.2594C3.96582 40.2594 3.57898 40.6463 3.57898 41.1236V51.7552C3.57898 52.2326 3.96582 52.6195 4.44324 52.6195H54.5569C55.0343 52.6195 55.4211 52.2326 55.4211 51.7552V27.5766H57.2716V54.4837H57.2715ZM44.6821 50.8898V45.4594H48.3229V50.8898H44.6821ZM10.6771 50.8898V45.4594H14.3179V50.8898H10.6771Z" fill="#1EA262"/>
<path d="M54.5521 23.9927C55.0295 23.9927 55.4163 23.6058 55.4163 23.1285V15.9781C55.4163 15.5008 55.0295 15.1138 54.5521 15.1138H45.7007C45.2233 15.1138 44.8365 15.5008 44.8365 15.9781C44.8365 16.4554 45.2233 16.8424 45.7007 16.8424H53.6878V22.2642H5.31203V16.8424H41.9351C42.4125 16.8424 42.7993 16.4554 42.7993 15.9781C42.7993 15.5008 42.4125 15.1138 41.9351 15.1138H4.44776C3.97034 15.1138 3.5835 15.5008 3.5835 15.9781V23.1285C3.5835 23.6058 3.97034 23.9927 4.44776 23.9927H54.5521Z" fill="#1EA262"/>
<path d="M26.8461 41.8943V44.6096C26.8461 45.0869 27.233 45.4738 27.7104 45.4738H31.2899C31.7673 45.4738 32.1542 45.0869 32.1542 44.6096V41.8943H34.8694C35.3469 41.8943 35.7337 41.5073 35.7337 41.03V37.4506C35.7337 36.9733 35.3469 36.5864 34.8694 36.5864H32.1542V33.8711C32.1542 33.3938 31.7673 33.0068 31.2899 33.0068H27.7104C27.233 33.0068 26.8461 33.3938 26.8461 33.8711V36.5864H24.1309C23.6534 36.5864 23.2666 36.9733 23.2666 37.4506V41.03C23.2666 41.5073 23.6534 41.8943 24.1309 41.8943H26.8461ZM24.9951 38.3149H27.7104C28.1878 38.3149 28.5746 37.9279 28.5746 37.4506V34.7354H30.4257V37.4506C30.4257 37.9279 30.8125 38.3149 31.2899 38.3149H34.0052V40.1658H31.2899C30.8125 40.1658 30.4257 40.5527 30.4257 41.03V43.7453H28.5746V41.03C28.5746 40.5527 28.1878 40.1658 27.7104 40.1658H24.9951V38.3149Z" fill="#1EA262"/>
<path d="M29.4999 49.0532C34.9108 49.0532 39.3127 44.6511 39.3127 39.2402C39.3127 33.8294 34.9108 29.4274 29.4999 29.4274C24.089 29.4274 19.687 33.8295 19.687 39.2402C19.687 44.6512 24.089 49.0532 29.4999 49.0532ZM29.4999 31.1559C33.9576 31.1559 37.5842 34.7826 37.5842 39.2402C37.5842 43.698 33.9575 47.3247 29.4999 47.3247C25.0422 47.3247 21.4155 43.698 21.4155 39.2402C21.4155 34.7826 25.0421 31.1559 29.4999 31.1559Z" fill="#1EA262"/>
</svg>
