<svg width="51" height="59" viewBox="0 0 51 59" fill="none" xmlns="http://www.w3.org/2000/svg">
<path d="M49.7124 6.73958H45.5222V3.39186C45.5222 1.52309 44.0029 0.0025358 42.1347 0.000230527C42.1332 0.000230527 42.1318 0 42.1303 0H29.1286C28.6512 0 28.2641 0.38694 28.2641 0.864477C28.2641 1.34201 28.6512 1.72895 29.1286 1.72895H39.176C38.8981 2.22067 38.7387 2.78788 38.7387 3.39186L38.7381 28.6568H19.5475L16.2207 25.33C16.0585 25.1679 15.8387 25.0769 15.6094 25.0769H5.7325V3.39221C5.7325 2.47506 6.4786 1.72895 7.39575 1.72895H25.3607C25.8382 1.72895 26.2252 1.34201 26.2252 0.864477C26.2252 0.38694 25.8382 0 25.3607 0H7.39564C5.52514 0 4.00343 1.52171 4.00343 3.39221V25.0769H1.28782C0.810395 25.0769 0.42334 25.4638 0.42334 25.9414V58.1356C0.42334 58.6132 0.810395 59.0001 1.28782 59.0001H6.56459C7.04201 59.0001 7.42906 58.6132 7.42906 58.1356C7.42906 57.6581 7.04201 57.2712 6.56459 57.2712H2.15229V26.8058H15.2513L18.5782 30.1327C18.7402 30.2947 18.9602 30.3858 19.1894 30.3858H43.3867V36.9155C43.3867 37.393 43.7738 37.78 44.2512 37.78C44.7286 37.78 45.1157 37.393 45.1157 36.9155V29.5213C45.1157 29.0438 44.7286 28.6568 44.2512 28.6568H40.4671V15.2079H47.1851C49.0554 15.2079 50.5769 13.6864 50.5769 11.8161V7.60406C50.5769 7.12652 50.1898 6.73958 49.7124 6.73958ZM40.4677 13.4789V3.39186C40.4677 2.47506 41.2136 1.72907 42.1304 1.72907C43.0473 1.72907 43.7932 2.47506 43.7932 3.39186V11.8163C43.7932 12.42 43.9518 12.9874 44.2295 13.479H40.4677V13.4789ZM48.8479 11.8163C48.8479 12.7331 48.1019 13.479 47.1851 13.479C46.2683 13.479 45.5223 12.7331 45.5223 11.8163V8.46854H48.848V11.8163H48.8479Z" fill="#1EA262"/>
<path d="M8.44797 12.4841H15.6087C16.0861 12.4841 16.4732 12.0971 16.4732 11.6196V4.45896C16.4732 3.98142 16.0861 3.59448 15.6087 3.59448H8.44797C7.97055 3.59448 7.5835 3.98142 7.5835 4.45896V11.6196C7.5835 12.097 7.97055 12.4841 8.44797 12.4841ZM9.31245 5.32344H14.7442V10.7551H9.31245V5.32344Z" fill="#1EA262"/>
<path d="M35.3007 3.59448H19.1892C18.7118 3.59448 18.3247 3.98142 18.3247 4.45896C18.3247 4.9365 18.7118 5.32344 19.1892 5.32344H35.3007C35.7781 5.32344 36.1652 4.9365 36.1652 4.45896C36.1652 3.98142 35.7781 3.59448 35.3007 3.59448Z" fill="#1EA262"/>
<path d="M35.3007 7.1748H19.1892C18.7118 7.1748 18.3247 7.56175 18.3247 8.03928C18.3247 8.51682 18.7118 8.90376 19.1892 8.90376H35.3007C35.7781 8.90376 36.1652 8.51682 36.1652 8.03928C36.1652 7.56175 35.7781 7.1748 35.3007 7.1748Z" fill="#1EA262"/>
<path d="M35.3007 10.7551H19.1892C18.7118 10.7551 18.3247 11.1421 18.3247 11.6196C18.3247 12.0971 18.7118 12.4841 19.1892 12.4841H35.3007C35.7781 12.4841 36.1652 12.0971 36.1652 11.6196C36.1652 11.1421 35.7781 10.7551 35.3007 10.7551Z" fill="#1EA262"/>
<path d="M35.3006 14.3354H8.44797C7.97055 14.3354 7.5835 14.7224 7.5835 15.1999C7.5835 15.6775 7.97055 16.0644 8.44797 16.0644H35.3006C35.778 16.0644 36.1651 15.6775 36.1651 15.1999C36.1651 14.7224 35.778 14.3354 35.3006 14.3354Z" fill="#1EA262"/>
<path d="M35.3006 17.9159H8.44797C7.97055 17.9159 7.5835 18.3028 7.5835 18.7804C7.5835 19.2579 7.97055 19.6448 8.44797 19.6448H35.3006C35.778 19.6448 36.1651 19.2579 36.1651 18.7804C36.1651 18.3028 35.778 17.9159 35.3006 17.9159Z" fill="#1EA262"/>
<path d="M35.3006 21.4962H8.44797C7.97055 21.4962 7.5835 21.8832 7.5835 22.3607C7.5835 22.8382 7.97055 23.2252 8.44797 23.2252H35.3006C35.778 23.2252 36.1651 22.8382 36.1651 22.3607C36.1651 21.8832 35.778 21.4962 35.3006 21.4962Z" fill="#1EA262"/>
<path d="M44.2511 39.819C43.7736 39.819 43.3866 40.2059 43.3866 40.6834V57.271H10.3313C9.85385 57.271 9.4668 57.658 9.4668 58.1355C9.4668 58.613 9.85385 59 10.3313 59H44.2511C44.7285 59 45.1155 58.613 45.1155 58.1355V40.6834C45.1155 40.2059 44.7285 39.819 44.2511 39.819Z" fill="#1EA262"/>
<path d="M13.8187 28.6569H4.8679C4.39047 28.6569 4.00342 29.0438 4.00342 29.5213C4.00342 29.9989 4.39047 30.3858 4.8679 30.3858H13.8187C14.2961 30.3858 14.6832 29.9989 14.6832 29.5213C14.6832 29.0438 14.2961 28.6569 13.8187 28.6569Z" fill="#1EA262"/>
<path d="M17.3991 46.5483H20.115V49.2643C20.115 49.7418 20.502 50.1288 20.9795 50.1288H24.5599C25.0373 50.1288 25.4244 49.7418 25.4244 49.2643V46.5483H28.1402C28.6176 46.5483 29.0047 46.1614 29.0047 45.6839V42.1034C29.0047 41.6259 28.6176 41.2389 28.1402 41.2389H25.4244V38.523C25.4244 38.0454 25.0373 37.6585 24.5599 37.6585H20.9795C20.502 37.6585 20.115 38.0454 20.115 38.523V41.2389H17.3991C16.9217 41.2389 16.5347 41.6259 16.5347 42.1034V45.6839C16.5347 46.1613 16.9217 46.5483 17.3991 46.5483ZM18.2636 42.9679H20.9795C21.4569 42.9679 21.8439 42.581 21.8439 42.1034V39.3875H23.6954V42.1034C23.6954 42.581 24.0825 42.9679 24.5599 42.9679H27.2757V44.8194H24.5599C24.0825 44.8194 23.6954 45.2063 23.6954 45.6839V48.3998H21.8439V45.6839C21.8439 45.2063 21.4569 44.8194 20.9795 44.8194H18.2636V42.9679Z" fill="#1EA262"/>
<path d="M22.7695 53.7089C28.1817 53.7089 32.5849 49.3057 32.5849 43.8935C32.5849 38.4813 28.1817 34.0782 22.7695 34.0782C17.3573 34.0782 12.9541 38.4813 12.9541 43.8935C12.9541 49.3057 17.3573 53.7089 22.7695 53.7089ZM22.7695 35.8071C27.2284 35.8071 30.8559 39.4347 30.8559 43.8934C30.8559 48.3524 27.2284 51.9798 22.7695 51.9798C18.3106 51.9798 14.6831 48.3523 14.6831 43.8934C14.6831 39.4347 18.3106 35.8071 22.7695 35.8071Z" fill="#1EA262"/>
</svg>
