<svg width="53" height="59" viewBox="0 0 53 59" fill="none" xmlns="http://www.w3.org/2000/svg">
<path d="M52.4202 22.3413V18.7618C52.4202 18.2844 52.0332 17.8975 51.5559 17.8975H48.8404V15.1821C48.8404 14.7047 48.4535 14.3179 47.9762 14.3179H41.682V12.4672H44.397C44.8743 12.4672 45.2613 12.0804 45.2613 11.6029V8.12057C45.2613 7.64315 44.8743 7.25631 44.397 7.25631C43.9197 7.25631 43.5327 7.64315 43.5327 8.12057V10.7387L33.1793 10.7386V1.72852H43.5327V4.35355C43.5327 4.83097 43.9197 5.21781 44.397 5.21781C44.8743 5.21781 45.2613 4.83097 45.2613 4.35355V0.864258C45.2613 0.386842 44.8743 0 44.397 0H8.6029C8.1256 0 7.73864 0.386842 7.73864 0.864258V11.6029C7.73864 12.0804 8.1256 12.4672 8.6029 12.4672H11.3179V14.3179H5.0236C4.5463 14.3179 4.15935 14.7047 4.15935 15.1821V17.8975H1.44385C0.966547 17.8975 0.57959 18.2844 0.57959 18.7618V22.3413C0.57959 24.4959 2.12131 26.2967 4.15935 26.6999V31.1963C4.15935 31.6737 4.5463 32.0605 5.0236 32.0605C5.5009 32.0605 5.88786 31.6737 5.88786 31.1963V26.6998C6.99561 26.4804 7.9562 25.8482 8.60267 24.9706C9.41242 26.0699 10.715 26.7848 12.1821 26.7848C13.6491 26.7848 14.9519 26.0698 15.7616 24.9706C16.5714 26.0699 17.874 26.7848 19.341 26.7848C20.8081 26.7848 22.1108 26.0698 22.9205 24.9706C23.7303 26.0699 25.0329 26.7848 26.5 26.7848C27.967 26.7848 29.2696 26.0698 30.0794 24.9706C30.8891 26.0699 32.1918 26.7848 33.6589 26.7848C35.1259 26.7848 36.4285 26.0698 37.2383 24.9706C38.048 26.0699 39.3508 26.7848 40.8178 26.7848C42.2849 26.7848 43.5875 26.0698 44.3972 24.9706C45.0437 25.8482 46.0043 26.4804 47.112 26.6998V53.692H23.7851V29.5001C23.7851 29.0227 23.3982 28.6359 22.9209 28.6359H8.60301C8.12571 28.6359 7.73876 29.0227 7.73876 29.5001V53.692H5.88809V34.9633C5.88809 34.4858 5.50113 34.099 5.02383 34.099C4.54653 34.099 4.15958 34.4858 4.15958 34.9633V53.6918H1.44385C0.966547 53.6918 0.57959 54.0787 0.57959 54.5561V58.1356C0.57959 58.613 0.966547 58.9999 1.44385 58.9999H51.5559C52.0332 58.9999 52.4202 58.613 52.4202 58.1356V54.5561C52.4202 54.0787 52.0332 53.6918 51.5559 53.6918H48.8404V26.6999C50.8785 26.2967 52.4202 24.4959 52.4202 22.3413ZM18.4768 53.692H13.0463V33.9438H18.4768V53.692ZM9.46704 30.3644H22.0564V53.692H20.2053V33.0795C20.2053 32.6021 19.8183 32.2153 19.341 32.2153H12.1821C11.7048 32.2153 11.3178 32.6021 11.3178 33.0795V53.6918H9.46704V30.3644ZM50.6917 57.2714H2.30811V55.4204H50.6917V57.2714ZM31.4508 10.7386H21.549V1.72852H31.4508V10.7386ZM9.46704 1.72852H19.8205V10.7386L9.46704 10.7387V1.72852ZM13.0463 12.4672H39.9533V14.3179H13.0463V12.4672ZM5.88786 16.0464H47.1118V17.8975H5.88786V16.0464ZM5.02326 25.0563C3.52613 25.0563 2.30811 23.8384 2.30811 22.3412V19.6259H7.73853V22.3412C7.73841 23.8384 6.52038 25.0563 5.02326 25.0563ZM12.1821 25.0563C10.685 25.0563 9.46693 23.8384 9.46693 22.3412V19.6259H14.8973V22.3412C14.8973 23.8384 13.6793 25.0563 12.1821 25.0563ZM19.341 25.0563C17.8439 25.0563 16.6259 23.8384 16.6259 22.3412V19.6259H22.0563V22.3412C22.0563 23.8384 20.8381 25.0563 19.341 25.0563ZM26.5 25.0563C25.0028 25.0563 23.7848 23.8384 23.7848 22.3412V19.6259H29.2151V22.3412C29.2151 23.8384 27.9971 25.0563 26.5 25.0563ZM33.6588 25.0563C32.1616 25.0563 30.9435 23.8384 30.9435 22.3412V19.6259H36.3739V22.3412C36.3739 23.8384 35.1559 25.0563 33.6588 25.0563ZM40.8177 25.0563C39.3206 25.0563 38.1024 23.8384 38.1024 22.3412V19.6259H43.5329V22.3412C43.5329 23.8384 42.3148 25.0563 40.8177 25.0563ZM45.2614 22.3413V19.626H50.6918V22.3413C50.6918 23.8384 49.4738 25.0564 47.9766 25.0564C46.4795 25.0564 45.2614 23.8384 45.2614 22.3413Z" fill="#1EA262"/>
<path d="M34.1989 42.9536C33.7216 42.9536 33.3346 43.3405 33.3346 43.8179C33.3346 44.2953 33.7216 44.6821 34.1989 44.6821H44.3971C44.8744 44.6821 45.2614 44.2953 45.2614 43.8179V29.5001C45.2614 29.0227 44.8744 28.6359 44.3971 28.6359H26.4355C25.9582 28.6359 25.5713 29.0227 25.5713 29.5001V43.8179C25.5713 44.2953 25.9582 44.6821 26.4355 44.6821H30.4319C30.9092 44.6821 31.2961 44.2953 31.2961 43.8179C31.2961 43.3405 30.9092 42.9536 30.4319 42.9536H27.2998V41.1768H43.5329V42.9536H34.1989ZM43.5329 30.3644V39.4482H27.2998V30.3644H43.5329Z" fill="#1EA262"/>
<path d="M24.4144 7.09798H25.6356V8.31912C25.6356 8.79653 26.0225 9.18337 26.4998 9.18337C26.9771 9.18337 27.3641 8.79653 27.3641 8.31912V7.09798H28.5851C29.0624 7.09798 29.4494 6.71114 29.4494 6.23372C29.4494 5.7563 29.0624 5.36946 28.5851 5.36946H27.3641V4.14844C27.3641 3.67102 26.9771 3.28418 26.4998 3.28418C26.0225 3.28418 25.6356 3.67102 25.6356 4.14844V5.36946H24.4145C23.9372 5.36946 23.5503 5.7563 23.5503 6.23372C23.5503 6.71114 23.9371 7.09798 24.4144 7.09798Z" fill="#1EA262"/>
<path d="M12.5278 8.8877H16.7051C17.1824 8.8877 17.5693 8.50085 17.5693 8.02344C17.5693 7.54602 17.1824 7.15918 16.7051 7.15918H12.5278C12.0505 7.15918 11.6636 7.54602 11.6636 8.02344C11.6636 8.50085 12.0505 8.8877 12.5278 8.8877Z" fill="#1EA262"/>
<path d="M12.5278 5.30817H16.7051C17.1824 5.30817 17.5693 4.92132 17.5693 4.44391C17.5693 3.96649 17.1824 3.57965 16.7051 3.57965H12.5278C12.0505 3.57965 11.6636 3.96649 11.6636 4.44391C11.6636 4.92132 12.0505 5.30817 12.5278 5.30817Z" fill="#1EA262"/>
<path d="M40.4818 7.15918H36.3047C35.8274 7.15918 35.4404 7.54602 35.4404 8.02344C35.4404 8.50085 35.8274 8.8877 36.3047 8.8877H40.4818C40.9591 8.8877 41.3461 8.50085 41.3461 8.02344C41.3461 7.54602 40.9591 7.15918 40.4818 7.15918Z" fill="#1EA262"/>
<path d="M40.4818 3.57965H36.3047C35.8274 3.57965 35.4404 3.96649 35.4404 4.44391C35.4404 4.92132 35.8274 5.30817 36.3047 5.30817H40.4818C40.9591 5.30817 41.3461 4.92132 41.3461 4.44391C41.3461 3.96649 40.9591 3.57965 40.4818 3.57965Z" fill="#1EA262"/>
</svg>
