<svg width="35" height="35" viewBox="0 0 35 35" fill="none" xmlns="http://www.w3.org/2000/svg">
<path d="M23.5156 7.65625H24.6094V8.75H23.5156V7.65625Z" fill="#EBBC4E"/>
<path d="M25.7031 7.65625H26.7969V8.75H25.7031V7.65625Z" fill="#EBBC4E"/>
<path d="M21.3281 7.65625H22.4219V8.75H21.3281V7.65625Z" fill="#EBBC4E"/>
<path d="M31.1719 1.09375H16.9531C16.2282 1.09462 15.5332 1.38298 15.0206 1.89559C14.508 2.4082 14.2196 3.10319 14.2188 3.82812V12.0312H3.82812C3.10319 12.0321 2.4082 12.3205 1.89559 12.8331C1.38298 13.3457 1.09462 14.0407 1.09375 14.7656V26.7969C1.09462 27.5218 1.38298 28.2168 1.89559 28.7294C2.4082 29.242 3.10319 29.5304 3.82812 29.5312H8.04945L7.12578 33.2265C7.09676 33.3425 7.10657 33.4648 7.1537 33.5747C7.20084 33.6847 7.2827 33.7761 7.38676 33.835C7.49081 33.894 7.61132 33.9172 7.72983 33.9011C7.84833 33.885 7.9583 33.8306 8.04289 33.746L12.2577 29.5312H20.2344C20.9593 29.5304 21.6543 29.242 22.1669 28.7294C22.6795 28.2168 22.9679 27.5218 22.9688 26.7969V15.3125H23.9055L28.1477 17.9637C28.2455 18.0251 28.3602 18.0538 28.4754 18.046C28.5906 18.0381 28.7003 17.9939 28.7889 17.9199C28.8774 17.8458 28.9403 17.7456 28.9684 17.6337C28.9966 17.5217 28.9886 17.4037 28.9455 17.2966L28.1515 15.3125H31.1719C31.8968 15.3116 32.5918 15.0233 33.1044 14.5107C33.617 13.9981 33.9054 13.3031 33.9062 12.5781V3.82812C33.9054 3.10319 33.617 2.4082 33.1044 1.89559C32.5918 1.38298 31.8968 1.09462 31.1719 1.09375ZM21.875 26.7969C21.875 27.232 21.7021 27.6493 21.3945 27.957C21.0868 28.2646 20.6695 28.4375 20.2344 28.4375H12.0312C11.8862 28.4375 11.7471 28.4952 11.6446 28.5977L8.66578 31.5766L9.28047 29.1156C9.30038 29.0351 9.30171 28.9511 9.28436 28.87C9.267 28.7889 9.23143 28.7128 9.18032 28.6474C9.12921 28.5821 9.06391 28.5292 8.98935 28.4929C8.9148 28.4565 8.83295 28.4376 8.75 28.4375H3.82812C3.393 28.4375 2.9757 28.2646 2.66803 27.957C2.36035 27.6493 2.1875 27.232 2.1875 26.7969V14.7656C2.1875 14.3305 2.36035 13.9132 2.66803 13.6055C2.9757 13.2979 3.393 13.125 3.82812 13.125H14.2734C14.4004 13.7422 14.7362 14.2968 15.2243 14.6952C15.7124 15.0937 16.323 15.3117 16.9531 15.3125H21.875V26.7969ZM32.8125 12.5781C32.8125 13.0132 32.6396 13.4305 32.332 13.7382C32.0243 14.0459 31.607 14.2188 31.1719 14.2188H27.3438C27.2543 14.2187 27.1662 14.2405 27.0872 14.2824C27.0082 14.3243 26.9406 14.3849 26.8905 14.459C26.8404 14.5331 26.8091 14.6183 26.7996 14.7072C26.79 14.7961 26.8024 14.886 26.8357 14.9691L27.3082 16.1492L24.3523 14.3019C24.2654 14.2476 24.165 14.2188 24.0625 14.2188H16.9531C16.518 14.2188 16.1007 14.0459 15.793 13.7382C15.4854 13.4305 15.3125 13.0132 15.3125 12.5781V3.82812C15.3125 3.393 15.4854 2.9757 15.793 2.66803C16.1007 2.36035 16.518 2.1875 16.9531 2.1875H31.1719C31.607 2.1875 32.0243 2.36035 32.332 2.66803C32.6396 2.9757 32.8125 3.393 32.8125 3.82812V12.5781Z" fill="#EBBC4E"/>
<path d="M11.4844 20.7812H12.5781V21.875H11.4844V20.7812Z" fill="#EBBC4E"/>
<path d="M13.6719 20.7812H14.7656V21.875H13.6719V20.7812Z" fill="#EBBC4E"/>
<path d="M9.29688 20.7812H10.3906V21.875H9.29688V20.7812Z" fill="#EBBC4E"/>
</svg>
